<?xml version="1.0" encoding="UTF-8"?>
<svg width="493px" height="106px" viewBox="0 0 493 106" version="1.1" xmlns="http://www.w3.org/2000/svg" xmlns:xlink="http://www.w3.org/1999/xlink">
    <!-- Generator: Sketch 42 (36781) - http://www.bohemiancoding.com/sketch -->
    <title>Group</title>
    <desc>Created with Sketch.</desc>
    <defs></defs>
    <g id="Page-1" stroke="none" stroke-width="1" fill="none" fill-rule="evenodd">
        <g id="Desktop" transform="translate(-257.000000, -330.000000)">
            <g id="Group" transform="translate(259.000000, 332.000000)">
                <path d="M45.9066203,0.323567084 L45.9066203,0 L45.2358582,4.42354486e-17 L0.263236458,100.804404 L0,101.394438 L1.02594722,102 L1.28918368,101.409966 L45.7488318,1.75537227 L90.20848,101.409966 L90.4717165,102 L91.4976637,101.394438 L91.2344272,100.804404 L46.6605743,0.893825042 L46.2557405,0.176793713 L45.9066203,0.323567084 Z" id="Combined-Shape" stroke="#FFFFFF" stroke-width="2" stroke-linecap="square"></path>
                <path d="M301.408957,0.323567084 L301.408957,0 L300.738195,4.42354486e-17 L255.765573,100.804404 L255.502336,101.394438 L256.528284,102 L256.79152,101.409966 L301.251168,1.75537227 L345.710816,101.409966 L345.974053,102 L347,101.394438 L346.736764,100.804404 L302.162911,0.893825042 L301.758077,0.176793713 L301.408957,0.323567084 Z" id="Combined-Shape" stroke="#FFFFFF" stroke-width="2" stroke-linecap="square"></path>
                <path d="M136.564,104 L136.564,1.76 L169.396,1.76 C177.46004,1.76 184.49197,3.10398656 190.492,5.792 C196.49203,8.48001344 201.48398,12.127977 205.468,16.736 C209.45202,21.344023 212.42799,26.743969 214.396,32.936 C216.36401,39.128031 217.348,45.727965 217.348,52.736 C217.348,60.5120389 216.220011,67.5439686 213.964,73.832 C211.707989,80.1200314 208.516021,85.4959777 204.388,89.96 C200.259979,94.4240223 195.22003,97.8799878 189.268,100.328 C183.31597,102.776012 176.692036,104 169.396,104 L136.564,104 Z M214.468,52.736 C214.468,45.727965 213.48401,39.2960293 211.516,33.44 C209.54799,27.5839707 206.644019,22.5200214 202.804,18.248 C198.963981,13.9759786 194.236028,10.640012 188.62,8.24 C183.003972,5.839988 176.596036,4.64 169.396,4.64 L139.444,4.64 L139.444,101.12 L169.396,101.12 C176.788037,101.12 183.291972,99.8960122 188.908,97.448 C194.524028,94.9999878 199.227981,91.6160216 203.02,87.296 C206.812019,82.9759784 209.66799,77.8640295 211.588,71.96 C213.50801,66.0559705 214.468,59.6480346 214.468,52.736 Z" id="D" fill="#FFFFFF"></path>
                <polygon id="M" fill="#FFFFFF" points="488.014336 104 488.014336 8.096 442.654336 83.84 440.350336 83.84 394.990336 8.096 394.990336 104 392.110336 104 392.110336 1.76 394.414336 1.76 441.502336 80.384 488.590336 1.76 490.894336 1.76 490.894336 104"></polygon>
            </g>
        </g>
    </g>
</svg>